<svg xmlns="http://www.w3.org/2000/svg" viewBox="0 0 256 256" role="img" aria-label="BalanceBikeToddler minimalist favicon">
  <defs>
    <linearGradient id="bg" x1="0" y1="0" x2="1" y2="1">
      <stop offset="0%" stop-color="#FF9A2F"/>
      <stop offset="100%" stop-color="#F45B2A"/>
    </linearGradient>
  </defs>

  <rect x="12" y="12" width="232" height="232" rx="52" fill="url(#bg)"/>

  <circle cx="82" cy="170" r="24" fill="#1F2937" opacity="0.96"/>
  <circle cx="174" cy="170" r="24" fill="#1F2937" opacity="0.96"/>
  <circle cx="82" cy="170" r="9" fill="#FFF7EE"/>
  <circle cx="174" cy="170" r="9" fill="#FFF7EE"/>

  <path d="M70 74h46c25 0 41 12 41 33 0 15-9 25-22 30 16 4 27 15 27 32 0 23-19 40-47 40H70V74zm25 21v30h18c14 0 22-5 22-15 0-10-8-15-22-15H95zm0 53v32h21c15 0 25-6 25-16 0-11-10-16-25-16H95z" fill="#FFF9F2"/>

  <path d="M147 58l28 15-4 12-33-17 9-10z" fill="#FFF9F2" opacity="0.96"/>
  <circle cx="149" cy="82" r="7" fill="#FFF9F2" opacity="0.96"/>
</svg>
